<svg height="512" viewBox="0 0 512 512" width="512" xmlns="http://www.w3.org/2000/svg"><g><g><g fill="#57a4ff"><path d="m64 136h48v48h-48z"/><path d="m64 216h48v48h-48z"/><path d="m64 304h48v48h-48z"/><path d="m64 48h272v56h-272z"/><path d="m264 368a104 104 0 0 0 104 104v24a128 128 0 0 1 0-256v24a104 104 0 0 0 -104 104z"/><path d="m368 352v32a16 16 0 0 1 0-32z"/><path d="m384 368a16 16 0 1 1 -16-16 15.987 15.987 0 0 1 16 16z"/><path d="m368 240a128 128 0 1 0 128 128 128 128 0 0 0 -128-128zm0 232a104 104 0 1 1 104-104 104 104 0 0 1 -104 104z"/><path d="m384 368a16 16 0 1 1 -16-16 15.987 15.987 0 0 1 16 16z"/><path d="m384 368a16 16 0 1 1 -16-16 15.987 15.987 0 0 1 16 16z"/></g><path d="m396 396-16.68-16.68" fill="none"/><path d="m64 48h272v56h-272z" fill="#57a4ff"/><path d="m64 136h48v48h-48z" fill="#57a4ff"/><path d="m64 216h48v48h-48z" fill="#57a4ff"/><path d="m64 304h48v48h-48z" fill="#57a4ff"/></g><g fill="#004fac"><path d="m376 232.24v-216.24a8 8 0 0 0 -8-8h-336a8 8 0 0 0 -8 8v480a8 8 0 0 0 8 8h336c74.99 0 136-61.01 136-136 0-72.3-56.72-131.6-128-135.76zm-336 255.76v-464h320v208.24c-71.28 4.16-128 63.46-128 135.76a136.126 136.126 0 0 0 72.06 120zm328 0a120 120 0 1 1 120-120 120.134 120.134 0 0 1 -120 120z"/><path d="m368 256a112 112 0 1 0 112 112 112.123 112.123 0 0 0 -112-112zm0 208a96 96 0 1 1 96-96 96.115 96.115 0 0 1 -96 96z"/><path d="m401.66 390.34-12.01-12a23.737 23.737 0 0 0 2.35-10.34 24.031 24.031 0 0 0 -16-22.62v-41.38a8 8 0 0 0 -16 0v41.38a24 24 0 0 0 8 46.62 23.737 23.737 0 0 0 10.34-2.35l12 12.01a8 8 0 0 0 11.32-11.32zm-33.66-14.34a8 8 0 1 1 8-8 8.011 8.011 0 0 1 -8 8z"/><path d="m64 112h272a8 8 0 0 0 8-8v-56a8 8 0 0 0 -8-8h-272a8 8 0 0 0 -8 8v56a8 8 0 0 0 8 8zm8-56h256v40h-256z"/><path d="m112 128h-48a8 8 0 0 0 -8 8v48a8 8 0 0 0 8 8h48a8 8 0 0 0 8-8v-48a8 8 0 0 0 -8-8zm-8 48h-32v-32h32z"/><path d="m336 128h-192a8 8 0 0 0 0 16h192a8 8 0 0 0 0-16z"/><path d="m336 152h-192a8 8 0 0 0 0 16h192a8 8 0 0 0 0-16z"/><path d="m144 192h96a8 8 0 0 0 0-16h-96a8 8 0 0 0 0 16z"/><path d="m112 208h-48a8 8 0 0 0 -8 8v48a8 8 0 0 0 8 8h48a8 8 0 0 0 8-8v-48a8 8 0 0 0 -8-8zm-8 48h-32v-32h32z"/><path d="m304 208h-160a8 8 0 0 0 0 16h160a8 8 0 0 0 0-16z"/><path d="m240 232h-96a8 8 0 0 0 0 16h96a8 8 0 0 0 0-16z"/><path d="m240 256h-96a8 8 0 0 0 0 16h96a8 8 0 0 0 0-16z"/><path d="m112 296h-48a8 8 0 0 0 -8 8v48a8 8 0 0 0 8 8h48a8 8 0 0 0 8-8v-48a8 8 0 0 0 -8-8zm-8 48h-32v-32h32z"/><path d="m208 296h-64a8 8 0 0 0 0 16h64a8 8 0 0 0 0-16z"/><path d="m208 320h-64a8 8 0 0 0 0 16h64a8 8 0 0 0 0-16z"/><path d="m208 344h-64a8 8 0 0 0 0 16h64a8 8 0 0 0 0-16z"/><path d="m272 192a8 8 0 0 0 0-16h-8a8 8 0 0 0 0 16z"/></g></g></svg>