<svg height="512" viewBox="0 0 64 64" width="512" xmlns="http://www.w3.org/2000/svg"><g id="Manager-Certificate-Finance-Business-Man"><path d="m61 11v44a2.006 2.006 0 0 1 -2 2h-36a2 2 0 0 1 -2-2v-50a2.006 2.006 0 0 1 2-2h30v6a2.006 2.006 0 0 0 2 2z" fill="#e6e7e8"/><path d="m61 18.45v36.55a2.006 2.006 0 0 1 -2 2h-36a2.012 2.012 0 0 1 -1.2-.4c9.02-3.65 31.59-14.89 39.2-38.15z" fill="#e0e0e2"/><path d="m25 37v3l-4 5-4-5v-3z" fill="#ffc477"/><path d="m61 11h-6a2.006 2.006 0 0 1 -2-2v-6z" fill="#bcbec0"/><path d="m48 21a9 9 0 1 1 -9 9 9 9 0 0 1 9-9z" fill="#ffd422"/><path d="m52 38.06v7.94l-4-3-4 3v-7.94a8.981 8.981 0 0 0 8 0z" fill="#ff5023"/><path d="m36.6 44.8a11.962 11.962 0 0 0 -9.4-4.79l.8 3.99-6 1 2 2-2 2 1.6 8 .4 2v2h15v-9a11.984 11.984 0 0 0 -2.4-7.2z" fill="#3d9ae2"/><path d="m27.2 40.01.8 3.99-6 1h-1l4-5h2a1.34 1.34 0 0 1 .2.01z" fill="#1e81ce"/><path d="m23.6 57-1.6-8h-1-1l-2 10v2h1 4 1v-2z" fill="#ff5023"/><path d="m22 45h-1-1l-2 2 2 2h1 1l2-2z" fill="#ed1c24"/><path d="m17 40 4 5h-1l-6-1 .8-3.99a1.34 1.34 0 0 1 .2-.01z" fill="#1e81ce"/><path d="m10 61h-7v-9a12 12 0 0 1 6.63-10.73 11.772 11.772 0 0 1 5.17-1.26l-.8 3.99 6 1-2 2 2 2-2 10v2z" fill="#3d9ae2"/><path d="m25 37v2.16a9.944 9.944 0 0 1 -8 0v-2.16z" fill="#ffb655"/><path d="m26 21a3.7 3.7 0 0 0 -3 2 5.327 5.327 0 0 1 -2-1.97 9.827 9.827 0 0 1 -1-2.03c-4 1-9 6-9 6v3a9.991 9.991 0 0 0 6 9.16 10 10 0 0 0 14-9.16v-3a6.889 6.889 0 0 1 -5-4z" fill="#ffc477"/><path d="m32 24a2 2 0 1 1 -1 3.73v-3.46a2 2 0 0 1 1-.27z" fill="#ffb655"/><path d="m21 11a10 10 0 0 0 -10 10v4s5-5 9-6a9.827 9.827 0 0 0 1 2.03 5.327 5.327 0 0 0 2 1.97 3.7 3.7 0 0 1 3-2 6.889 6.889 0 0 0 5 4v-4a10 10 0 0 0 -10-10z" fill="#57565c"/><path d="m11 25v2.73a2 2 0 1 1 0-3.46z" fill="#ffb655"/><path d="m15 25h2v2h-2z"/><path d="m25 25h2v2h-2z"/><path d="m25 30h-2a2 2 0 0 1 -4 0h-2a4 4 0 0 0 8 0z"/><path d="m61.707 10.293-8-8a1 1 0 0 0 -.707-.293h-30a3 3 0 0 0 -3 3v5.051a11.01 11.01 0 0 0 -10 10.949v2a3 3 0 0 0 0 6c.017 0 .033-.006.05-.007a11.009 11.009 0 0 0 5.95 8.793v1.214h-1a13 13 0 0 0 -13 13v9a1 1 0 0 0 1 1h36a1 1 0 0 0 1-1v-3h19a3 3 0 0 0 3-3v-44a1 1 0 0 0 -.293-.707zm-7.707-4.879 4.586 4.586h-3.586a1 1 0 0 1 -1-1zm-33 6.586a9.01 9.01 0 0 1 9 9v2.606a5.605 5.605 0 0 1 -3.052-2.922 1 1 0 0 0 -.948-.684 4.269 4.269 0 0 0 -3.249 1.611 7.993 7.993 0 0 1 -1.8-2.928 1 1 0 0 0 -1.19-.653c-2.77.692-5.881 3.077-7.758 4.7v-1.73a9.01 9.01 0 0 1 8.997-9zm11 13a1 1 0 0 1 0 2zm-23 1a1 1 0 0 1 1-1v2a1 1 0 0 1 -1-1zm3 2v-2.575c.995-.945 4.42-4.066 7.424-5.2a7.734 7.734 0 0 0 3.129 3.675 1.007 1.007 0 0 0 1.339-.442 3.034 3.034 0 0 1 1.521-1.358 8.1 8.1 0 0 0 4.587 3.633v2.267a9 9 0 0 1 -18 0zm14.379 13 .437 2.184-3.556.592 2.221-2.776zm-5.965 7-1-1 1-1h1.172l1 1-1 1zm.586-9a10.966 10.966 0 0 0 3-.426v1.074l-3 3.752-3-3.751v-1.075a10.966 10.966 0 0 0 3 .426zm-4.481 2 2.221 2.776-3.556-.592.437-2.184zm-12.519 11a10.919 10.919 0 0 1 2.2-6.6 11.143 11.143 0 0 1 3.881-3.239 10.834 10.834 0 0 1 3.48-1.061l-.541 2.7a1 1 0 0 0 .816 1.182l4.083.681-.626.626a1 1 0 0 0 0 1.414l1.622 1.622-1.895 9.475a1 1 0 0 0 -.02.2v1h-6v-10h-2v10h-5zm15 8v-.9l1.82-9.1h.36l1.82 9.1v.9zm19 0h-5v-10h-2v10h-6v-1a1 1 0 0 0 -.02-.2l-1.895-9.475 1.622-1.622a1 1 0 0 0 0-1.414l-.626-.626 4.083-.681a1 1 0 0 0 .816-1.182l-.541-2.7a11.079 11.079 0 0 1 7.361 4.3 10.918 10.918 0 0 1 2.2 6.6zm21-4h-19v-4a12.9 12.9 0 0 0 -2.6-7.8 13.075 13.075 0 0 0 -10.4-5.2h-1v-1.214a11.009 11.009 0 0 0 5.95-8.793c.017 0 .033.007.05.007a3 3 0 0 0 0-6v-2a11.01 11.01 0 0 0 -10-10.949v-5.051a1 1 0 0 1 1-1h29v5a3 3 0 0 0 3 3h5v43a1 1 0 0 1 -1 1z"/><path d="m47 27h2a1 1 0 0 1 1 1h2a3 3 0 0 0 -3-3v-1h-2v1a3 3 0 0 0 0 6h2a1 1 0 0 1 0 2h-2a1 1 0 0 1 -1-1h-2a3 3 0 0 0 3 3v1h2v-1a3 3 0 0 0 0-6h-2a1 1 0 0 1 0-2z"/><path d="m37 12h10v2h-10z"/><path d="m37 8h2v2h-2z"/><path d="m41 8h6v2h-6z"/><path d="m48 20a9.992 9.992 0 0 0 -5 18.647v7.353a1 1 0 0 0 1.6.8l3.4-2.55 3.4 2.55a.993.993 0 0 0 .6.2 1 1 0 0 0 1-1v-7.353a9.992 9.992 0 0 0 -5-18.647zm3 24-2.4-1.8a1 1 0 0 0 -1.2 0l-2.4 1.8v-4.461a9.992 9.992 0 0 0 6 0zm-3-6a8 8 0 1 1 8-8 8.009 8.009 0 0 1 -8 8z"/></g></svg>